<?xml version="1.0" encoding="utf-8"?>
<!-- Generator: Adobe Illustrator 16.0.0, SVG Export Plug-In . SVG Version: 6.00 Build 0)  -->
<!DOCTYPE svg PUBLIC "-//W3C//DTD SVG 1.1//EN" "http://www.w3.org/Graphics/SVG/1.1/DTD/svg11.dtd">
<svg version="1.1" id="Capa_1" xmlns="http://www.w3.org/2000/svg" xmlns:xlink="http://www.w3.org/1999/xlink" x="0px" y="0px"
	 width="169px" height="199.782px" viewBox="0 0 169 199.782" enable-background="new 0 0 169 199.782" xml:space="preserve">
<path fill-rule="evenodd" clip-rule="evenodd" fill="#FFFFFF" d="M116.06,137.638c-3.068-2.974-5.771-6.314-9.844-10.814
	c6.724-1.796,11.429-2.888,16.033-4.313c27.855-8.629,44.774-35.108,41.391-64.666c-3.029-26.475-26.274-49.673-53.198-50.648
	C79.482,6.071,48.459,6.827,17.463,6.7C8.547,6.664,4.326,10.868,4.342,19.854C4.438,74.66,4.021,120.695,4.289,175.499
	c0,13.411,10.871,24.283,24.283,24.283c13.41,0,24.281-10.872,24.281-24.283c0,0,0.754-39.917,0.312-58.354
	c-0.092-3.812-3.136-7.966-5.739-11.222c-6.968-8.711-7.903-17.369,0.502-25.113c7.333-6.753,16.277-6.35,23.067,0.461
	c7.89,7.916,6.659,16.832-0.636,25.238c-2.439,2.813-5.391,6.496-5.464,9.844c-0.448,19.75-0.829,39.557,0.181,59.272
	c0.803,15.673,8.704,22.038,24.535,22.163c19.318,0.156,38.647,0.463,57.941-0.205c16.06-0.818,11.894-17.506,8.123-21.459
	C142.977,162.811,129.281,150.453,116.06,137.638z M73.641,32.95c0.261-1.616,3.854-3.668,6.073-3.833
	c12.697-0.928,44.063,30.834,43.479,45.075c-0.842,1.104-2.141,4.473-3.937,4.76c-2.544,0.408-7.105-0.678-7.945-2.468
	c-7.562-16.107-19.409-27.583-35.118-35.651C74.352,39.887,73.238,35.463,73.641,32.95z M93.734,83.312
	c-2.129,0.733-5.686,0.553-7.229-0.817c-5.997-5.328-12.072-10.821-16.728-17.258c-1.553-2.146,1.062-7.308,1.583-10.091
	c10.99-0.369,26.344,15.345,25.492,22.792C96.631,79.905,95.25,82.789,93.734,83.312z"/>
</svg>
