<?xml version="1.0" encoding="utf-8"?>
<!-- Generator: Adobe Illustrator 21.1.0, SVG Export Plug-In . SVG Version: 6.00 Build 0)  -->
<svg version="1.1" id="Layer_1" xmlns="http://www.w3.org/2000/svg" xmlns:xlink="http://www.w3.org/1999/xlink" x="0px" y="0px"
	 viewBox="0 0 800 800" style="enable-background:new 0 0 800 800;" xml:space="preserve">
<style type="text/css">
	.st0{clip-path:url(#SVGID_2_);}
	.st1{clip-path:url(#SVGID_4_);}
	.st2{clip-path:url(#SVGID_4_);fill:url(#SVGID_8_);}
	.st3{clip-path:url(#SVGID_4_);fill:url(#SVGID_9_);}
	.st4{fill:url(#SVGID_10_);}
	.st5{fill:url(#SVGID_11_);}
	.st6{fill:url(#SVGID_12_);}
	.st7{fill:url(#SVGID_13_);}
	.st8{fill:url(#SVGID_14_);}
	.st9{fill:url(#SVGID_15_);}
	.st10{fill:url(#SVGID_16_);}
	.st11{fill:#FFFFFF;stroke:#FFFFFF;stroke-miterlimit:10;}
</style>
<g>
	<defs>
		<rect id="SVGID_1_" y="0" width="800" height="800"/>
	</defs>
	<clipPath id="SVGID_2_">
		<use xlink:href="#SVGID_1_"  style="overflow:visible;"/>
	</clipPath>
	<g class="st0">
		<g>
			<g>
				<defs>
					<path id="SVGID_3_" d="M481,351.8c-8.8,8.2-16.6,6.6-20.4,4.9c-4.8-2.2-6.1-3.6-9.3-6.6c-0.1-0.1-0.1-0.2-0.2-0.2
						c-8.8-8.8-23.1-8.8-31.9,0l-27.9,27.9c-8.8,8.8-23.1,8.8-31.9,0c-8.8-8.8-8.8-23.1,0-31.9l91.7-91.7c8.4-8.4,8.8-21.9,1.1-30.7
						l0.1,0c-4-4.4-5.5-5.4-8-10.8c-1.7-3.8-3.3-11.5,4.9-20.4l33.8-33.8c8.8-8.8,8.8-23.1,0-31.9c-8.8-8.8-23.1-8.8-31.9,0l-22,22
						c-8.8,8.2-16.6,6.6-20.4,4.9c-4.2-1.9-5.7-3.3-8.3-5.7c-0.4-0.4-0.8-0.9-1.2-1.3c-8.8-8.8-23.1-8.8-31.9,0L72.2,441.5
						c-8.8,8.8-8.8,23.1,0,31.9c8.8,8.8,23.1,8.8,31.9,0l25.9-25.9c8.8-8.8,23.1-8.8,31.9,0c8.8,8.8,8.8,23.1,0,31.9l-53.9,53.9
						c-8.8,8.8-8.8,23.1,0,31.9c8.8,8.8,23.1,8.8,31.9,0l47.9-47.9c8.8-8.8,23.1-8.8,31.9,0c8.8,8.8,8.8,23.1,0,31.9L108.1,660.9
						c-8.8,8.8-8.8,23.1,0,31.9c8.8,8.8,23.1,8.8,31.9,0l91.7-91.7c8.8-8.8,23.1-8.8,31.9,0c8.8,8.8,8.8,23.1,0,31.9l3.5-3.5
						c-8.8,8.8-8.8,23.1,0,31.9c8.8,8.8,23.1,8.8,31.9,0l6.4-6.4c8.8-8.8,23.1-8.8,31.9,0c8.8,8.8,8.8,23.1,0,31.9l2-2
						c-8.8,8.8-8.8,23.1,0,31.9c8.8,8.8,23.1,8.8,31.9,0l295.1-295.1c8.8-8.8,8.8-23.1,0-31.9c-8.8-8.8-23.1-8.8-31.9,0l-8,8
						c-8.8,8.8-23.1,8.8-31.9,0c-8.8-8.8-8.8-23.1,0-31.9l52.3-52.3c8.8-8.8,8.8-23.1,0-31.9c-8.8-8.8-23.1-8.8-31.9,0l-2.6,2.6
						c-7.9,6-14.7,4.5-18.1,3c-4.6-2.1-6-3.5-8.9-6.3c-0.3-0.3-0.5-0.6-0.8-0.8c-8.8-8.8-23.1-8.8-31.9,0L481,351.8z"/>
				</defs>
				<clipPath id="SVGID_4_">
					<use xlink:href="#SVGID_3_"  style="overflow:visible;"/>
				</clipPath>
				<g class="st1">
					<g>
						<defs>
							<polygon id="SVGID_5_" points="656.9,175.9 107.9,724.9 -57.6,559.4 491.4,10.4 							"/>
						</defs>
						<radialGradient id="SVGID_6_" cx="585.9926" cy="-63.9291" r="2519.2375" gradientUnits="userSpaceOnUse">
							<stop  offset="0" style="stop-color:#166AB8"/>
							<stop  offset="0.7092" style="stop-color:#A758FF"/>
						</radialGradient>
						<use xlink:href="#SVGID_5_"  style="overflow:visible;fill:url(#SVGID_6_);"/>
						<clipPath id="SVGID_7_">
							<use xlink:href="#SVGID_5_"  style="overflow:visible;"/>
						</clipPath>
					</g>
				</g>
				
					<radialGradient id="SVGID_8_" cx="570.2025" cy="483.9166" r="396.0673" gradientTransform="matrix(0.7071 -0.7071 0.7071 0.7071 -178.0552 412.707)" gradientUnits="userSpaceOnUse">
					<stop  offset="0.4949" style="stop-color:#C036A5"/>
					<stop  offset="0.9082" style="stop-color:#FF558F"/>
				</radialGradient>
				<polygon class="st2" points="720.2,371.6 323.6,768.2 257.6,702.2 654.2,305.6 				"/>
				
					<radialGradient id="SVGID_9_" cx="458.6531" cy="364.8535" r="343.5829" gradientTransform="matrix(0.7071 -0.7071 0.712 0.712 -166.7443 424.0182)" gradientUnits="userSpaceOnUse">
					<stop  offset="0.4949" style="stop-color:#36B5D0"/>
					<stop  offset="1" style="stop-color:#36E5D0"/>
				</radialGradient>
				<polygon class="st3" points="668.8,291.9 272.2,688.5 207.9,624.2 604.5,227.6 				"/>
			</g>
			<radialGradient id="SVGID_10_" cx="770.0726" cy="99.7465" r="330.7497" gradientUnits="userSpaceOnUse">
				<stop  offset="0.4949" style="stop-color:#36B5D0"/>
				<stop  offset="1" style="stop-color:#36E5D0"/>
			</radialGradient>
			<path class="st4" d="M639.7,125.6c8.8,8.8,8.8,23.1,0,31.9L498.8,298.4c-8.8,8.8-23.1,8.8-31.9,0l0,0c-8.8-8.8-8.8-23.1,0-31.9
				l140.9-140.9C616.6,116.8,630.9,116.8,639.7,125.6L639.7,125.6z"/>
			<radialGradient id="SVGID_11_" cx="866.0676" cy="48.7492" r="422.9274" gradientUnits="userSpaceOnUse">
				<stop  offset="0.4949" style="stop-color:#FF5CA3"/>
				<stop  offset="1" style="stop-color:#B700C0"/>
			</radialGradient>
			<path class="st5" d="M716.3,151.7c8.8,8.8,8.8,23.1,0,31.9l-64.7,64.7c-8.8,8.8-23.1,8.8-31.9,0l0,0c-8.8-8.8-8.8-23.1,0-31.9
				l64.7-64.7C693.2,142.8,707.5,142.8,716.3,151.7L716.3,151.7z"/>
			
				<radialGradient id="SVGID_12_" cx="496.5931" cy="-8.8483" r="602.659" gradientTransform="matrix(1 0 0 1 9.667 23.335)" gradientUnits="userSpaceOnUse">
				<stop  offset="0.4949" style="stop-color:#FF5CA3"/>
				<stop  offset="1" style="stop-color:#B700C0"/>
			</radialGradient>
			<path class="st6" d="M295.7,158.3c8.8,8.8,8.8,23.1,0,31.9L184.3,301.6c-8.8,8.8-23.1,8.8-31.9,0l0,0c-8.8-8.8-8.8-23.1,0-31.9
				l111.4-111.4C272.6,149.5,286.9,149.5,295.7,158.3L295.7,158.3z"/>
			
				<radialGradient id="SVGID_13_" cx="853.574" cy="330.1344" r="602.6577" gradientTransform="matrix(1 0 0 1 9.667 23.335)" gradientUnits="userSpaceOnUse">
				<stop  offset="0.4949" style="stop-color:#FF5CA3"/>
				<stop  offset="1" style="stop-color:#B700C0"/>
			</radialGradient>
			<path class="st7" d="M652.6,497.3c8.8,8.8,8.8,23.1,0,31.9L541.3,640.6c-8.8,8.8-23.1,8.8-31.9,0l0,0c-8.8-8.8-8.8-23.1,0-31.9
				l111.4-111.4C629.6,488.5,643.8,488.5,652.6,497.3L652.6,497.3z"/>
			<radialGradient id="SVGID_14_" cx="470.086" cy="174.7431" r="333.6224" gradientUnits="userSpaceOnUse">
				<stop  offset="0.4949" style="stop-color:#FF5CA3"/>
				<stop  offset="1" style="stop-color:#B700C0"/>
			</radialGradient>
			<circle class="st8" cx="509.3" cy="101.6" r="23.5"/>
			
				<linearGradient id="SVGID_15_" gradientUnits="userSpaceOnUse" x1="917.4001" y1="535.723" x2="751.2543" y2="653.002" gradientTransform="matrix(0.7071 -0.7071 0.7071 0.7071 -358.7613 341.3286)">
				<stop  offset="0" style="stop-color:#8B76BB"/>
				<stop  offset="0.1389" style="stop-color:#8079BA"/>
				<stop  offset="0.3843" style="stop-color:#6282B9"/>
				<stop  offset="0.7052" style="stop-color:#3290B6"/>
				<stop  offset="1" style="stop-color:#009EB3"/>
			</linearGradient>
			<circle class="st9" cx="663.8" cy="100.1" r="23.5"/>
			
				<linearGradient id="SVGID_16_" gradientUnits="userSpaceOnUse" x1="387.0921" y1="807.2413" x2="220.9464" y2="924.5203" gradientTransform="matrix(0.7071 -0.7071 0.7071 0.7071 -358.7613 341.3286)">
				<stop  offset="0" style="stop-color:#8B76BB"/>
				<stop  offset="0.1389" style="stop-color:#8079BA"/>
				<stop  offset="0.3843" style="stop-color:#6282B9"/>
				<stop  offset="0.7052" style="stop-color:#3290B6"/>
				<stop  offset="1" style="stop-color:#009EB3"/>
			</linearGradient>
			<circle class="st10" cx="480.8" cy="667.1" r="23.5"/>
		</g>
		<g>
			<circle class="st11" cx="400" cy="400" r="125.2"/>
		</g>
	</g>
</g>
</svg>
